<svg id="icon-weixin" xmlns="http://www.w3.org/2000/svg" width="24" height="24" viewBox="0 0 24 24">
  <metadata><?xpacket begin="﻿" id="W5M0MpCehiHzreSzNTczkc9d"?>
<x:xmpmeta xmlns:x="adobe:ns:meta/" x:xmptk="Adobe XMP Core 5.6-c138 79.159824, 2016/09/14-01:09:01        ">
   <rdf:RDF xmlns:rdf="http://www.w3.org/1999/02/22-rdf-syntax-ns#">
      <rdf:Description rdf:about=""/>
   </rdf:RDF>
</x:xmpmeta>
                                                                                                    
                                                                                                    
                                                                                                    
                                                                                                    
                                                                                                    
                                                                                                    
                                                                                                    
                                                                                                    
                                                                                                    
                                                                                                    
                                                                                                    
                                                                                                    
                                                                                                    
                                                                                                    
                                                                                                    
                                                                                                    
                                                                                                    
                                                                                                    
                                                                                                    
                                                                                                    
                           
<?xpacket end="w"?></metadata>
<defs>
    <style>
      .cls-1 {
        fill: #07a431;
        fill-rule: evenodd;
      }
    </style>
  </defs>
  <path id="icon-weixin-2" data-name="icon-weixin" class="cls-1" d="M935.805,577.656c-1-7.491-10.668-9.491-16.118-5.967a8.07,8.07,0,0,0-1.188,12.618c0.268,0.254,1.4.742,1.329,1.187-0.1.682-.476,1.323-0.638,1.994-0.258,1.07.41,0.819,1.081,0.344,1.309-.926,1.654-1.408,3.254-0.887-0.85-6.7,7.374-9.427,12.257-7.212A7.043,7.043,0,0,0,935.805,577.656Zm4.2,8.378a6.748,6.748,0,0,1-1.539,4.247c-0.385.469-1.347,1-1.459,1.621-0.12.665,0.466,1.225,0.467,1.874,0,0.759-1.715-.666-1.959-0.776a4,4,0,0,0-2.3.074,9.1,9.1,0,0,1-2.706-.064c-2.919-.442-5.587-2.087-6.334-5.221a6.235,6.235,0,0,1,.793-5.05C928.565,577.557,940,578.462,940,586.034Zm-10.681-11.795c-1.932,0-1.932,3.115,0,3.115S931.252,574.239,929.319,574.239Zm-6.976,0c-1.932,0-1.932,3.115,0,3.115S924.275,574.239,922.343,574.239Zm12.768,8.691a1.324,1.324,0,0,0,0,2.642A1.324,1.324,0,0,0,935.111,582.93Zm-6.06,0a1.324,1.324,0,0,0,0,2.642A1.324,1.324,0,0,0,929.051,582.93Z" transform="translate(-916 -570)"/>
</svg>
